# Blender v2.83.1 OBJ File: ''
# www.blender.org
mtllib Broom.mtl
o Cube
v 0.900000 0.225000 0.500000
v 1.000000 0.250000 0.000000
v 0.900000 -0.225000 0.500000
v 1.000000 -0.250000 0.000000
v -0.900000 0.225000 0.500000
v -1.000000 0.250000 0.000000
v -0.900000 -0.225000 0.500000
v -1.000000 -0.250000 0.000000
v 0.600000 0.250000 0.000000
v 0.200000 0.250000 0.000000
v -0.200000 0.250000 0.000000
v -0.600000 0.250000 0.000000
v 0.540000 -0.225000 0.500000
v 0.180000 -0.225000 0.500000
v -0.180000 -0.225000 0.500000
v -0.540000 -0.225000 0.500000
v -0.600000 -0.250000 0.000000
v -0.200000 -0.250000 0.000000
v 0.200000 -0.250000 0.000000
v 0.600000 -0.250000 0.000000
v -0.540000 0.225000 0.500000
v -0.180000 0.225000 0.500000
v 0.180000 0.225000 0.500000
v 0.540000 0.225000 0.500000
v 0.675000 0.168750 1.250000
v 0.675000 -0.168750 1.250000
v -0.675000 0.168750 1.250000
v -0.675000 -0.168750 1.250000
v 0.675000 0.168750 1.250000
v 0.675000 -0.168750 1.250000
v -0.675000 0.168750 1.250000
v -0.675000 -0.168750 1.250000
v 0.405000 -0.168750 1.250000
v 0.135000 -0.168750 1.250000
v -0.135000 -0.168750 1.250000
v -0.405000 -0.168750 1.250000
v -0.405000 0.168750 1.250000
v -0.135000 0.168750 1.250000
v 0.135000 0.168750 1.250000
v 0.405000 0.168750 1.250000
v 0.000000 0.100000 1.262500
v 0.000000 0.050000 2.512500
v 0.100000 -0.000000 1.262500
v 0.050000 -0.000000 2.512500
v -0.000000 -0.100000 1.262500
v -0.000000 -0.050000 2.512500
v -0.100000 0.000000 1.262500
v -0.050000 -0.000000 2.512500
vt 0.825000 0.500000
vt 0.875000 0.500000
vt 0.875000 0.750000
vt 0.825000 0.750000
vt 0.125000 0.950000
vt 0.375000 0.950000
vt 0.375000 1.000000
vt 0.125000 1.000000
vt 0.125000 0.000000
vt 0.375000 0.000000
vt 0.375000 0.250000
vt 0.125000 0.250000
vt 0.325000 0.500000
vt 0.375000 0.500000
vt 0.375000 0.750000
vt 0.325000 0.750000
vt 0.125000 0.500000
vt 0.375000 0.500000
vt 0.375000 0.750000
vt 0.125000 0.750000
vt 0.125000 0.450000
vt 0.375000 0.450000
vt 0.375000 0.300000
vt 0.125000 0.300000
vt 0.625000 0.300000
vt 0.875000 0.300000
vt 0.875000 0.350000
vt 0.625000 0.350000
vt 0.125000 0.350000
vt 0.375000 0.350000
vt 0.375000 0.400000
vt 0.125000 0.400000
vt 0.625000 0.400000
vt 0.875000 0.400000
vt 0.875000 0.450000
vt 0.625000 0.450000
vt 0.125000 0.500000
vt 0.175000 0.500000
vt 0.175000 0.750000
vt 0.125000 0.750000
vt 0.675000 0.500000
vt 0.725000 0.500000
vt 0.725000 0.750000
vt 0.675000 0.750000
vt 0.225000 0.500000
vt 0.275000 0.500000
vt 0.275000 0.750000
vt 0.225000 0.750000
vt 0.775000 0.500000
vt 0.825000 0.500000
vt 0.825000 0.750000
vt 0.775000 0.750000
vt 0.375000 0.800000
vt 0.125000 0.800000
vt 0.625000 0.800000
vt 0.875000 0.800000
vt 0.875000 0.850000
vt 0.625000 0.850000
vt 0.125000 0.850000
vt 0.375000 0.850000
vt 0.375000 0.900000
vt 0.125000 0.900000
vt 0.625000 0.900000
vt 0.875000 0.900000
vt 0.875000 0.950000
vt 0.625000 0.950000
vt 0.625000 0.500000
vt 0.675000 0.500000
vt 0.675000 0.750000
vt 0.625000 0.750000
vt 0.725000 0.500000
vt 0.725000 0.750000
vt 0.775000 0.500000
vt 0.775000 0.750000
vt 0.293750 0.412500
vt 0.288750 0.412500
vt 0.206250 0.337500
vt 0.206250 0.337500
vt 0.000000 0.000000
vt 0.000000 0.000000
vt 0.281250 0.650000
vt 0.281250 0.675000
vt 0.093750 0.225000
vt 0.093750 0.225000
vt 0.000000 0.000000
vt 0.000000 0.000000
vt 0.281250 0.600000
vt 0.281250 0.625000
vt 0.093750 0.225000
vt 0.093750 0.225000
vt 0.000000 0.000000
vt 0.000000 0.000000
vt 0.281250 0.450000
vt 0.281250 0.475000
vt 0.093750 0.225000
vt 0.093750 0.225000
vt 0.000000 0.000000
vt 0.000000 0.000000
vt 0.281250 0.400000
vt 0.281250 0.425000
vt 0.093750 0.225000
vt 0.093750 0.225000
vt 0.000000 0.000000
vt 0.000000 0.000000
vt 0.288750 0.387500
vt 0.293750 0.387500
vt 0.206250 0.337500
vt 0.206250 0.337500
vt 0.206250 0.337500
vt 0.206250 0.337500
vt 0.912500 0.504000
vt 0.912500 0.604000
vt 0.862500 0.604000
vt 0.862500 0.504000
vt 0.812500 0.604000
vt 0.812500 0.504000
vt 0.810500 0.454000
vt 0.762500 0.502000
vt 0.714500 0.454000
vt 0.762500 0.406000
vt 0.762500 0.604000
vt 0.762500 0.504000
vt 0.712500 0.604000
vt 0.712500 0.504000
vt 0.750000 0.490000
vt 0.990000 0.250000
vt 0.750000 0.010000
vt 0.510000 0.250000
vn 0.0000 0.0000 1.0000
vn 0.0000 -0.9988 0.0499
vn -0.9806 0.0000 0.1961
vn 0.0000 0.0000 -1.0000
vn 0.9806 0.0000 0.1961
vn 0.0000 0.9988 0.0499
vn 0.0000 -0.9972 0.0748
vn 0.0000 0.9972 -0.0748
vn -0.9578 0.0000 -0.2873
vn 0.0000 -0.9972 -0.0748
vn 0.0000 0.9972 0.0748
vn -0.9578 0.0000 0.2873
vn 0.7068 0.7068 0.0283
vn 0.7068 -0.7068 0.0283
vn -0.7068 -0.7068 0.0283
vn -0.7068 0.7068 0.0283
usemtl Material
s off
f 21/1/1 5/2/1 7/3/1 16/4/1
f 17/5/2 16/6/2 7/7/2 8/8/2
f 8/9/3 7/10/3 5/11/3 6/12/3
f 9/13/4 2/14/4 4/15/4 20/16/4
f 2/17/5 1/18/5 3/19/5 4/20/5
f 9/21/6 24/22/6 1/18/6 2/17/6
f 6/12/6 5/11/6 21/23/6 12/24/6
f 12/25/6 21/26/6 22/27/6 11/28/6
f 11/29/6 22/30/6 23/31/6 10/32/6
f 10/33/6 23/34/6 24/35/6 9/36/6
f 6/37/4 12/38/4 17/39/4 8/40/4
f 12/41/4 11/42/4 18/43/4 17/44/4
f 11/45/4 10/46/4 19/47/4 18/48/4
f 10/49/4 9/50/4 20/51/4 19/52/4
f 4/20/2 3/19/2 13/53/2 20/54/2
f 20/55/2 13/56/2 14/57/2 19/58/2
f 19/59/2 14/60/2 15/61/2 18/62/2
f 18/63/2 15/64/2 16/65/2 17/66/2
f 1/67/1 24/68/1 13/69/1 3/70/1
f 24/68/1 23/71/1 14/72/1 13/69/1
f 23/71/1 22/73/1 15/74/1 14/72/1
f 22/73/1 21/1/1 16/4/1 15/74/1
f 7/75/7 16/76/7 36/77/7 32/78/7
f 15/64/8 16/65/8 36/79/8 35/80/8
f 14/81/8 15/82/8 35/83/8 34/84/8
f 13/56/8 14/57/8 34/85/8 33/86/8
f 3/87/8 13/88/8 33/89/8 30/90/8
f 1/18/9 3/19/9 26/91/9 25/92/9
f 24/93/10 1/94/10 29/95/10 40/96/10
f 23/34/10 24/35/10 40/97/10 39/98/10
f 22/99/10 23/100/10 39/101/10 38/102/10
f 21/26/10 22/27/10 38/103/10 37/104/10
f 21/105/11 5/106/11 31/107/11 37/108/11
f 5/106/12 7/75/12 28/109/12 27/110/12
f 25/92/4 26/91/4 28/109/4 27/110/4
f 41/111/13 42/112/13 44/113/13 43/114/13
f 43/114/14 44/113/14 46/115/14 45/116/14
f 44/117/1 42/118/1 48/119/1 46/120/1
f 45/116/15 46/115/15 48/121/15 47/122/15
f 47/122/16 48/121/16 42/123/16 41/124/16
f 41/125/4 43/126/4 45/127/4 47/128/4
